<?xml version="1.0" encoding="utf-8"?>
<!-- Generator: Adobe Illustrator 26.2.1, SVG Export Plug-In . SVG Version: 6.00 Build 0)  -->
<svg version="1.1" id="Layer_1" xmlns="http://www.w3.org/2000/svg" xmlns:xlink="http://www.w3.org/1999/xlink" x="0px" y="0px"
	 viewBox="0 0 131.1 182.7" style="enable-background:new 0 0 131.1 182.7;" xml:space="preserve">
<style type="text/css">
	.st0{fill:#FFFFFF;}
</style>
<g>
	<g>
		<rect x="2.1" y="133.2" class="st0" width="127.1" height="14.8"/>
		<rect x="2.1" y="106.8" class="st0" width="127.1" height="15.1"/>
	</g>
	<path class="st0" d="M73.1,10.7c-1.1-3.5-2.6-4.9-4.9-4.9c-2.4,0-3.7,1.5-3.7,4c0,5.6,14.9,6,14.9,17.5c0,6.3-4.1,10.5-11.1,10.5
		c-5.4,0-9.6-3.1-11.4-10.3l6.6-1.5c0.8,4.4,3.2,6,5.2,6c2.3,0,4.1-1.6,4.1-4.4c0-6.9-14.9-7-14.9-17.3C57.9,4,61.5,0,68.4,0
		c5.9,0,9.6,3.7,10.7,8.9L73.1,10.7z"/>
	<path class="st0" d="M83.7,36.8V0H102v6.2H90.4v8.4h8.8v6.2h-8.8v9.7h12.1v6.2H83.7z"/>
	<path class="st0" d="M128.5,0v6.2h-7.8v30.5h-6.7V6.2h-7.8V0H128.5z"/>
	<path class="st0" d="M66.2,42.9v37.4c0,5.1,2.2,7.8,7.2,7.8c5,0,7.2-2.7,7.2-7.8V42.9h10.2v37.4c0,11.8-7,16.7-17.5,16.7
		c-10.5,0-17.4-5-17.4-16.7V42.9H66.2z"/>
	<path class="st0" d="M97.6,96.3V42.9h14.7c12.6,0,18.7,5.9,18.7,16c0,10.1-6.1,16-18.7,16h-4.5v21.5H97.6z M107.9,66.4h5.5
		c5,0,7.5-2.5,7.5-7.5c0-5-2.5-7.5-7.5-7.5h-5.5V66.4z"/>
	<path class="st0" d="M7.1,0.1V26c0,3.5,1.5,5.4,5,5.4c3.4,0,5-1.8,5-5.4V0.1h7.1v26c0,8.2-4.8,11.6-12.1,11.6
		C4.8,37.7,0,34.2,0,26.1v-26H7.1z"/>
	<path class="st0" d="M30.5,37.1v-37h10.2c8.7,0,13,4.1,13,11.1c0,7-4.3,11.1-13,11.1h-3.1v14.9H30.5z M37.6,16.4h3.8
		c3.5,0,5.2-1.7,5.2-5.2c0-3.5-1.7-5.2-5.2-5.2h-3.8V16.4z"/>
	<path class="st0" d="M12,77.4C11.2,75,10.2,74,8.6,74C7,74,6,75,6,76.7c0,3.8,10.3,4.1,10.3,11.9c0,4.3-2.9,7.2-7.7,7.2
		c-3.8,0-6.7-2.1-7.9-7.1l4.6-1c0.5,3,2.2,4.1,3.6,4.1c1.6,0,2.9-1.1,2.9-3c0-4.7-10.3-4.8-10.3-11.8c0-4.3,2.5-7,7.3-7
		c4.1,0,6.6,2.5,7.4,6.1L12,77.4z"/>
	<path class="st0" d="M19.8,95.5V70.4h12.7v4.2h-8.1v5.8h6.1v4.2h-6.1v6.6h8.4v4.2H19.8z"/>
	<path class="st0" d="M51,70.4v4.2h-5.4v20.9h-4.6V74.6h-5.4v-4.2H51z"/>
	<g>
		<path class="st0" d="M15.2,43.6l0,3.7l-5.2,0l0,18.4l-4.4,0l0-18.4l-5.2,0l0-3.7L15.2,43.6z"/>
		<path class="st0" d="M18.4,65.8l0-22.1l4.5,0l0,8.8h6.3l0-8.8l4.5,0l0,22.1l-4.4,0l0-9.6l-6.3,0l0,9.6H18.4z"/>
		<path class="st0" d="M38.2,65.8l0-22.1l12.2,0l0,3.7l-7.7,0l0,5.1l5.9,0l0,3.7l-5.9,0l0,5.8l8.1,0l0,3.7L38.2,65.8z"/>
	</g>
	<polygon class="st0" points="21.4,153.6 25,164.7 36.6,164.7 27.2,171.6 30.8,182.7 21.4,175.8 11.9,182.7 15.5,171.6 6.1,164.7 
		17.8,164.7 	"/>
	<polygon class="st0" points="109.8,153.6 113.4,164.7 125,164.7 115.6,171.6 119.2,182.7 109.8,175.8 100.3,182.7 103.9,171.6 
		94.5,164.7 106.2,164.7 	"/>
	<polygon class="st0" points="65.6,153.6 69.2,164.7 80.8,164.7 71.4,171.6 75,182.7 65.6,175.8 56.1,182.7 59.7,171.6 50.3,164.7 
		62,164.7 	"/>
	<g>
		<rect x="2.1" y="133.2" class="st0" width="127.1" height="14.8"/>
		<rect x="2.1" y="106.8" class="st0" width="127.1" height="15.1"/>
	</g>
	<path class="st0" d="M73.1,11.3c-1.1-3.5-2.6-4.9-4.9-4.9c-2.4,0-3.7,1.5-3.7,4c0,5.6,14.9,6,14.9,17.5c0,6.3-4.1,10.5-11.1,10.5
		c-5.4,0-9.6-3.1-11.4-10.3l6.6-1.5c0.8,4.4,3.2,6,5.2,6c2.3,0,4.1-1.6,4.1-4.4c0-6.9-14.9-7-14.9-17.3c0-6.3,3.6-10.3,10.5-10.3
		c5.9,0,9.6,3.7,10.7,8.9L73.1,11.3z"/>
	<path class="st0" d="M66.2,42.9v37.4c0,5.1,2.2,7.8,7.2,7.8c5,0,7.2-2.7,7.2-7.8V42.9h10.2v37.4c0,11.8-7,16.7-17.5,16.7
		c-10.5,0-17.4-5-17.4-16.7V42.9H66.2z"/>
	<path class="st0" d="M97.6,96.3V42.9h14.7c12.6,0,18.7,5.9,18.7,16c0,10.1-6.1,16-18.7,16h-4.5v21.5H97.6z M107.9,66.4h5.5
		c5,0,7.5-2.5,7.5-7.5c0-5-2.5-7.5-7.5-7.5h-5.5V66.4z"/>
	<path class="st0" d="M7.1,0.5v25.9c0,3.5,1.5,5.4,5,5.4c3.4,0,5-1.8,5-5.4V0.5h7.1v26c0,8.2-4.8,11.6-12.1,11.6
		C4.8,38.1,0,34.6,0,26.5v-26H7.1z"/>
	<path class="st0" d="M30.5,37.5v-37h10.2c8.7,0,13,4.1,13,11.1c0,7-4.3,11.1-13,11.1h-3.1v14.9H30.5z M37.6,16.8h3.8
		c3.5,0,5.2-1.7,5.2-5.2c0-3.5-1.7-5.2-5.2-5.2h-3.8V16.8z"/>
	<path class="st0" d="M12,77.4C11.2,75,10.2,74,8.6,74C7,74,6,75,6,76.7c0,3.8,10.3,4.1,10.3,11.9c0,4.3-2.9,7.2-7.7,7.2
		c-3.8,0-6.7-2.1-7.9-7.1l4.6-1c0.5,3,2.2,4.1,3.6,4.1c1.6,0,2.9-1.1,2.9-3c0-4.7-10.3-4.8-10.3-11.8c0-4.3,2.5-7,7.3-7
		c4.1,0,6.6,2.5,7.4,6.1L12,77.4z"/>
	<path class="st0" d="M19.8,95.5V70.4h12.7v4.2h-8.1v5.8h6.1v4.2h-6.1v6.6h8.4v4.2H19.8z"/>
	<path class="st0" d="M51,70.4v4.2h-5.4v20.9h-4.6V74.6h-5.4v-4.2H51z"/>
	<g>
		<path class="st0" d="M15.2,43.6l0,3.7l-5.2,0l0,18.4l-4.4,0l0-18.4l-5.2,0l0-3.7L15.2,43.6z"/>
		<path class="st0" d="M18.4,65.8l0-22.1l4.5,0l0,8.8h6.3l0-8.8l4.5,0l0,22.1l-4.4,0l0-9.6l-6.3,0l0,9.6H18.4z"/>
		<path class="st0" d="M38.2,65.8l0-22.1l12.2,0l0,3.7l-7.7,0l0,5.1l5.9,0l0,3.7l-5.9,0l0,5.8l8.1,0l0,3.7L38.2,65.8z"/>
	</g>
	<polygon class="st0" points="21.4,153.6 25,164.7 36.6,164.7 27.2,171.6 30.8,182.7 21.4,175.8 11.9,182.7 15.5,171.6 6.1,164.7 
		17.8,164.7 	"/>
	<polygon class="st0" points="109.8,153.6 113.4,164.7 125,164.7 115.6,171.6 119.2,182.7 109.8,175.8 100.3,182.7 103.9,171.6 
		94.5,164.7 106.2,164.7 	"/>
	<polygon class="st0" points="65.6,153.6 69.2,164.7 80.8,164.7 71.4,171.6 75,182.7 65.6,175.8 56.1,182.7 59.7,171.6 50.3,164.7 
		62,164.7 	"/>
</g>
</svg>
